# xmcd CD database file
#
# Track frame offsets:
#	150
#	33589
#	62537
#	90745
#	118782
#	144267
#	170504
#	196762
#	225710
#	252771
#	276115
#	302108
#
# Disc length: 4379 seconds
#
# Revision: 0
# Processed by: cddbd v1.4PL0 Copyright (c) Steve Scherf et al.
# Submitted via: CDex 1.51
#
DISCID=9f11190c
DTITLE=Jamey Aebersold - Vol 74 - Latin Jazz
DYEAR=1900
DGENRE=Jazz
TTITLE0=Desafinado
TTITLE1=Forest flower
TTITLE2=I can't get started
TTITLE3=Have you met miss Jones
TTITLE4=Opus de funk
TTITLE5=Body and soul
TTITLE6=What's new
TTITLE7=West coast blues
TTITLE8=Soul eyes
TTITLE9=St. Thomas
TTITLE10=What is this thing called love
TTITLE11=Don't blame me
EXTD=
EXTT0=
EXTT1=
EXTT2=
EXTT3=
EXTT4=
EXTT5=
EXTT6=
EXTT7=
EXTT8=
EXTT9=
EXTT10=
EXTT11=
PLAYORDER=
